<?xml version="1.0" encoding="UTF-8"?>
<svg width="312px" height="84px" viewBox="0 0 312 84" version="1.1" xmlns="http://www.w3.org/2000/svg" xmlns:xlink="http://www.w3.org/1999/xlink">
    <!-- Generator: Sketch 54.1 (76490) - https://sketchapp.com -->
    <title>logo_blue</title>
    <desc>Created with Sketch.</desc>
    <defs>
        <polygon id="path-1" points="0.280430668 0.143201442 20.0260695 0.143201442 20.0260695 39.522017 0.280430668 39.522017"></polygon>
        <polygon id="path-3" points="0.0512261267 0.116370384 12.3311698 0.116370384 12.3311698 12.3925676 0.0512261267 12.3925676"></polygon>
        <polygon id="path-5" points="0 0.437059106 12.2781421 0.437059106 12.2781421 12.7159016 0 12.7159016"></polygon>
    </defs>
    <g id="Page-1" stroke="none" stroke-width="1" fill="none" fill-rule="evenodd">
        <g id="Logo-sideways" transform="translate(-9.000000, -9.000000)">
            <g id="logo_blue" transform="translate(9.000000, 9.000000)">
                <g id="icon_blue" fill="#79A8E2">
                    <path d="M54.7928414,21.9564127 C53.2791481,21.9564127 51.7474504,22.075857 50.2060917,22.3235283 C42.6060079,23.5447586 35.9364479,27.6519744 31.4256684,33.8889879 C26.9148888,40.1260013 25.1030239,47.7467244 26.3238151,55.3468083 C27.5446063,62.9464531 31.6518221,69.616013 37.8892747,74.1267926 C44.1262881,78.6380112 51.7487678,80.449437 59.346656,79.2286458 C75.0355794,76.7084585 85.7486808,61.8947283 83.2289326,46.2058049 C80.9559775,32.0586793 68.6857086,21.9564127 54.7928414,21.9564127 M54.7054538,83.9923663 C47.7759268,83.9923663 41.0404969,81.8252423 35.3155131,77.6850915 C28.1277756,72.487068 23.3947945,64.8009139 21.9882498,56.0432741 C20.581266,47.2851951 22.6693459,38.5034029 27.8673694,31.3156654 C33.0649538,24.1279279 40.7511079,19.3949468 49.509626,17.987963 C67.5874357,15.0835339 84.6605079,27.4297729 87.5644979,45.5093391 C90.4684879,63.5889054 78.1222489,80.6602211 60.0431218,83.5642111 C58.2602397,83.8509653 56.4764793,83.9923663 54.7054538,83.9923663" id="Fill-26"></path>
                    <path d="M49.520253,65.1789201 C49.8443335,67.1967386 48.471163,69.095552 46.4533445,69.4196325 C44.4355259,69.743713 42.5367126,68.3705425 42.2121929,66.352724 C41.8881124,64.3349054 43.2612829,62.4360921 45.2795406,62.1120115 C47.2973591,61.787931 49.1961725,63.1611015 49.520253,65.1789201" id="Fill-28"></path>
                    <path d="M72.4984415,61.4878711 C72.8225221,63.5056896 71.4493516,65.404503 69.431533,65.7285835 C67.4137145,66.052664 65.5149011,64.6799326 65.1903815,62.661675 C64.8663009,60.6438564 66.2394714,58.7450431 68.2577291,58.4209625 C70.2755476,58.096882 72.174361,59.4700525 72.4984415,61.4878711" id="Fill-30"></path>
                    <path d="M23.8163627,55.8344661 C22.6851547,55.8344661 21.7243306,54.9654209 21.630356,53.817965 C20.9496991,45.5078022 23.4092859,37.2995184 28.5559308,30.7037329 C33.7306802,24.0723775 41.1564281,19.6854336 49.4657126,18.3509069 C66.6964338,15.5812917 83.2293718,26.7300136 87.1047251,43.7275549 C87.373914,44.9101415 86.6344131,46.0870193 85.4518265,46.3566473 C84.2683617,46.6249579 83.0923621,45.8858961 82.8231733,44.7037487 C79.4607279,29.9558885 65.1137966,20.2870466 50.1621784,22.6864721 C35.3976311,25.0582323 24.787726,38.5752013 26.0071998,53.4591929 C26.106444,54.6676883 25.2066594,55.7277567 23.998164,55.8270008 C23.9371244,55.8318313 23.876524,55.8344661 23.8163627,55.8344661" id="Fill-34"></path>
                    <path d="M10.2195153,49.327649 C9.14715128,49.327649 8.20916207,48.5411609 8.04975661,47.4490358 C7.8741032,46.249323 8.70494382,45.134363 9.90465661,44.9591488 L32.5810726,41.6467646 L39.9418287,22.6296483 C40.3796448,21.4984403 41.6526929,20.9376668 42.7817052,21.3746047 C43.9129131,21.8124208 44.475004,23.0837123 44.0371879,24.2149203 L36.2135851,44.4264798 C35.9277092,45.1651024 35.2668132,45.6925017 34.483399,45.8066765 L10.5396437,49.304375 C10.4316168,49.3201838 10.3249074,49.327649 10.2195153,49.327649" id="Fill-36"></path>
                    <path d="M24.2349009,55.7654343 C23.1757108,55.7654343 22.2429912,54.9969506 22.0695335,53.9175604 C21.877193,52.7200433 22.6917857,51.5936658 23.8893028,51.4013254 L38.3447001,49.0791873 L44.7859106,33.4368121 C45.076617,32.7306854 45.7133606,32.226121 46.467792,32.1053592 L56.7663513,30.4507041 C57.9665033,30.2566071 59.0906851,31.0733955 59.2825864,32.2704734 C59.4749269,33.4675514 58.6603342,34.5939289 57.4628171,34.7862694 L48.3780228,36.2459492 L41.9372514,51.8883244 C41.6461059,52.5944511 41.0093623,53.0990156 40.2549309,53.2202164 L24.5857685,55.7373298 C24.4676416,55.7562125 24.350393,55.7654343 24.2349009,55.7654343" id="Fill-38"></path>
                    <path d="M51.1944496,44.8634176 C50.1260377,44.8634176 49.1902442,44.0830774 49.0260082,42.9949045 C48.8450852,41.7956309 49.6706562,40.6771578 50.8699299,40.4962348 L59.8673366,39.1397513 L70.9765365,10.01949 C71.4086439,8.8860864 72.6773006,8.31784762 73.8107042,8.75083327 C74.9436687,9.18294066 75.5119075,10.4515974 75.0798001,11.5845619 L63.5139014,41.9023403 C63.2315386,42.6422803 62.5723991,43.1727536 61.7894241,43.2908805 L51.5242388,44.8388262 C51.4135772,44.8555132 51.3029155,44.8634176 51.1944496,44.8634176" id="Fill-40"></path>
                    <path d="M72.8839569,41.4303157 C71.8247668,41.4303157 70.8920472,40.661832 70.7185895,39.5824418 C70.526249,38.3849247 71.3408417,37.2585472 72.5383588,37.0662067 L80.8164648,35.7365104 C82.017495,35.5441699 83.1407986,36.3596409 83.3326999,37.5562797 C83.5250404,38.7533577 82.7104477,39.8797352 81.5129306,40.0720757 L73.2348245,41.4022111 C73.1166976,41.4210939 72.999449,41.4303157 72.8839569,41.4303157" id="Fill-42"></path>
                    <path d="M57.9868791,50.6469818 C56.927689,50.6469818 55.9949694,49.8784981 55.8215117,48.7991079 C55.6291712,47.6015908 56.4437639,46.4752133 57.641281,46.2828728 L82.4764774,42.2937839 C83.6770684,42.1005652 84.8008111,42.9164753 84.9922733,44.1135532 C85.1850529,45.3106312 84.3700211,46.4370087 83.1729431,46.6293492 L58.3377467,50.6188773 C58.2196198,50.63776 58.1023712,50.6469818 57.9868791,50.6469818" id="Fill-44"></path>
                    <path d="M46.9476332,30.3816723 C45.8884431,30.3816723 44.9557235,29.6131887 44.7822658,28.5337985 C44.5899253,27.3362814 45.404518,26.210343 46.6020351,26.0180025 L54.2539367,24.7884287 L55.2687743,20.899023 C55.5748504,19.7260974 56.7706109,19.0217272 57.9479279,19.3291207 C59.1212927,19.6351968 59.8239063,20.8344704 59.5178303,22.0078352 L58.1411467,27.2835853 C57.9215799,28.1258434 57.224675,28.759074 56.3648516,28.8969619 L47.2985009,30.3535678 C47.1803739,30.3724505 47.0631253,30.3816723 46.9476332,30.3816723" id="Fill-46"></path>
                    <path d="M74.2554148,4.82937092 C74.0310175,4.82937092 73.8070594,4.87328427 73.5936405,4.96023271 C72.7021995,5.32515266 72.2736052,6.34701637 72.638086,7.23889656 C73.003006,8.13033761 74.0253088,8.55761452 74.9163107,8.19401197 C75.3484181,8.01704116 75.6856726,7.68286055 75.8661565,7.25294883 C76.0466404,6.82259798 76.0483969,6.34789464 75.8718653,5.91578725 L75.8718653,5.91578725 C75.6948945,5.48367987 75.361153,5.14686445 74.9308021,4.96638058 C74.7129919,4.8750408 74.4842033,4.82937092 74.2554148,4.82937092 M74.2633192,12.7153307 C71.8436935,12.7153307 69.5452686,11.275851 68.5739052,8.90145607 C67.2925136,5.76823839 68.7987416,2.17700444 71.9315202,0.89561282 C75.0625422,-0.385339666 78.6550935,1.12088832 79.9364851,4.2527886 C80.55742,5.77043406 80.5499547,7.43870231 79.9158459,8.95107816 C79.2817371,10.4630149 78.0965157,11.6376971 76.5788702,12.2581927 C75.8204866,12.5686601 75.0353159,12.7153307 74.2633192,12.7153307" id="Fill-48"></path>
                    <path d="M6.14211667,45.9916834 C6.04902036,45.9916834 5.95504579,45.9991487 5.86151035,46.0140792 C4.91078627,46.1668977 4.26130779,47.0649257 4.41368712,48.0156498 C4.48790069,48.47674 4.7368894,48.881182 5.11498336,49.154323 C5.49263819,49.4274641 5.95328925,49.5368083 6.41569685,49.463473 C7.36686006,49.3106546 8.01633854,48.4126265 7.86352008,47.4619024 C7.78930651,47.0008122 7.54075694,46.5968094 7.16222384,46.3232292 C6.86141738,46.105419 6.50659749,45.9916834 6.14211667,45.9916834 M6.1254296,53.8780823 C4.84447711,53.8780823 3.59997271,53.4780317 2.54166092,52.712622 C1.21284288,51.7517978 0.338088899,50.3312009 0.0781218537,48.7121156 C-0.458499311,45.3707486 1.82367761,42.2151351 5.16504458,41.6785139 C6.78325161,41.4181078 8.40716738,41.8041061 9.73598542,42.7649303 C11.0643643,43.7257544 11.9391183,45.1467905 12.1990853,46.7654367 C12.4590524,48.3840828 12.073054,50.0075595 11.1122299,51.3359384 C10.1518449,52.6643173 8.73124792,53.5390713 7.11216262,53.7990383 C6.78237335,53.8521735 6.45258407,53.8780823 6.1254296,53.8780823" id="Fill-51"></path>
                </g>
                <path d="M123.552859,31.8894986 C122.66054,30.9967401 121.604863,30.2849047 120.414811,29.7737533 C119.220368,29.2604062 117.926241,29 116.569319,29 L113.898948,29 C112.542025,29 111.244386,29.259967 110.04116,29.772875 C108.842764,30.2835873 107.781818,30.9958619 106.889059,31.8894986 C105.995423,32.7831353 105.283148,33.8383732 104.773314,35.0266685 C104.259967,36.2202334 104,37.514799 104,38.8725999 L104,59.0292677 C104,60.3879468 104.259967,61.6825124 104.773314,62.8756382 C105.283148,64.0630553 105.994984,65.1187322 106.889059,66.0132472 C107.783135,66.9073231 108.843643,67.6195977 110.04116,68.1294317 C111.244386,68.6423396 112.542025,68.9023067 113.898948,68.9023067 L116.569319,68.9023067 C117.926241,68.9023067 119.220368,68.6419005 120.414811,68.1285534 C121.603985,67.6182803 122.659662,66.9068839 123.552859,66.0132472 C124.446057,65.1196105 125.157892,64.0639335 125.668165,62.8756382 C126.181512,61.681195 126.441919,60.3870685 126.441919,59.0292677 L126.441919,57.537092 C126.441919,57.2143288 126.207861,56.9389921 125.88905,56.8871744 L122.512552,56.3373792 C122.322407,56.307079 122.127432,56.3606533 121.979883,56.4858063 C121.832773,56.6109594 121.74802,56.7940781 121.74802,56.9872968 L121.74802,59.0292677 C121.74802,59.7731599 121.607498,60.4731387 121.330844,61.1103214 C121.051116,61.7558477 120.664678,62.3315518 120.182949,62.8211857 C119.704732,63.3073065 119.135615,63.6955005 118.493163,63.9743503 C117.855102,64.2510044 117.155123,64.3915271 116.41167,64.3915271 L114.056158,64.3915271 C113.312705,64.3915271 112.612726,64.2510044 111.975104,63.9743503 C111.330017,63.6946222 110.75563,63.3051108 110.268192,62.8176726 C109.779436,62.3284778 109.389925,61.7545303 109.110636,61.1098823 C108.833982,60.4731387 108.693898,59.7731599 108.693898,59.0292677 L108.693898,38.8725999 C108.693898,38.1295859 108.833982,37.4296071 109.110636,36.7924244 C109.389486,36.149972 109.77768,35.5812941 110.263801,35.1017603 C110.753434,34.6209091 111.329138,34.2344716 111.975104,33.9538653 C112.612726,33.6772112 113.312705,33.5371276 114.056158,33.5371276 L116.41167,33.5371276 C117.155123,33.5371276 117.855102,33.6772112 118.492724,33.9538653 C119.136933,34.2335933 119.706928,34.6187134 120.186462,35.0982472 C120.666874,35.5782202 121.051994,36.1482155 121.330844,36.7928635 C121.607498,37.4296071 121.74802,38.1295859 121.74802,38.8725999 L121.74802,40.9150099 C121.74802,41.1069112 121.831895,41.2900299 121.978126,41.4147438 C122.123919,41.540336 122.317577,41.5934712 122.507282,41.5658058 L125.884219,41.0423586 C126.205226,40.9922974 126.441919,40.7160824 126.441919,40.3911236 L126.441919,38.8725999 C126.441919,37.5156773 126.181512,36.2215508 125.668165,35.0271076 C125.157453,33.837934 124.445618,32.782257 123.552859,31.8894986" id="Fill-1" fill="#79A8E2"></path>
                <path d="M145.685064,60.8144898 C145.685064,61.3673589 145.580111,61.8916844 145.37284,62.3729747 C145.162056,62.8621695 144.873545,63.2907638 144.516969,63.6469011 C144.158636,64.005234 143.730042,64.2933056 143.242603,64.5027723 C142.761752,64.7104825 142.236988,64.8154354 141.684558,64.8154354 L139.537634,64.8154354 C138.984326,64.8154354 138.46,64.7104825 137.979149,64.5027723 C137.49215,64.2933056 137.063556,64.0056732 136.705223,63.6473402 C136.347329,63.2894464 136.059696,62.8608521 135.849791,62.3729747 C135.64208,61.8925626 135.537128,61.3682372 135.537128,60.8144898 L135.537128,48.3545153 C135.537128,47.801207 135.64208,47.2773207 135.85023,46.7955913 C136.059696,46.3081531 136.347329,45.8795587 136.705223,45.5225432 C137.062677,45.1646494 137.491711,44.8765778 137.97871,44.6666719 C138.460879,44.4589618 138.985204,44.3540089 139.537634,44.3540089 L141.684558,44.3540089 C142.236109,44.3540089 142.760874,44.4589618 143.242603,44.6662328 C143.730481,44.8770169 144.159075,45.1650885 144.516969,45.5225432 C144.873545,45.8782413 145.161617,46.3072748 145.372401,46.7955913 C145.580111,47.278199 145.685064,47.8025244 145.685064,48.3545153 L145.685064,60.8144898 Z M147.725278,42.4955958 C146.953282,41.7240382 146.038127,41.1092513 145.005725,40.6679221 C143.967174,40.2243972 142.849579,40 141.684558,40 L139.537634,40 C138.371734,40 137.25414,40.2243972 136.216467,40.6679221 C135.183625,41.1092513 134.268471,41.7240382 133.496474,42.4960349 C132.723599,43.2693491 132.108373,44.1845033 131.668361,45.216028 C131.224397,46.2537005 131,47.3712953 131,48.5376339 L131,60.6318103 C131,61.7985881 131.224397,62.9161829 131.667922,63.9529771 C132.108812,64.9858192 132.723599,65.9009734 133.496474,66.6729702 C134.268032,67.4449669 135.183186,68.060193 136.216467,68.501083 C137.25414,68.945047 138.371734,69.1694442 139.537634,69.1694442 L141.684558,69.1694442 C142.849579,69.1694442 143.967174,68.945047 145.006164,68.501083 C146.038567,68.060193 146.953721,67.4449669 147.725718,66.6729702 C148.497275,65.9014126 149.112501,64.9866974 149.55427,63.9534163 L149.554709,63.9529771 C149.997355,62.9144263 150.222192,61.7972707 150.222192,60.6318103 L150.222192,48.5376339 C150.222192,47.3726127 149.997355,46.255457 149.55427,45.216028 C149.112501,44.1836251 148.497275,43.2684708 147.725278,42.4955958 L147.725278,42.4955958 Z" id="Fill-3" fill="#79A8E2"></path>
                <path d="M170.685064,60.8144898 C170.685064,61.3673589 170.580111,61.8916844 170.37284,62.3729747 C170.162056,62.8621695 169.873545,63.2907638 169.516969,63.6469011 C169.158636,64.005234 168.730042,64.2933056 168.242603,64.5027723 C167.761752,64.7104825 167.236988,64.8154354 166.684558,64.8154354 L164.537634,64.8154354 C163.984326,64.8154354 163.46,64.7104825 162.979149,64.5027723 C162.49215,64.2933056 162.063556,64.0056732 161.705223,63.6473402 C161.347329,63.2894464 161.059696,62.8608521 160.849791,62.3729747 C160.64208,61.8925626 160.537128,61.3682372 160.537128,60.8144898 L160.537128,48.3545153 C160.537128,47.801207 160.64208,47.2773207 160.85023,46.7955913 C161.059696,46.3081531 161.347329,45.8795587 161.705223,45.5225432 C162.062677,45.1646494 162.491711,44.8765778 162.97871,44.6666719 C163.460879,44.4589618 163.985204,44.3540089 164.537634,44.3540089 L166.684558,44.3540089 C167.236109,44.3540089 167.760874,44.4589618 168.242603,44.6662328 C168.730481,44.8770169 169.159075,45.1650885 169.516969,45.5225432 C169.873545,45.8782413 170.161617,46.3072748 170.372401,46.7955913 C170.580111,47.278199 170.685064,47.8025244 170.685064,48.3545153 L170.685064,60.8144898 Z M172.725278,42.4955958 C171.953282,41.7240382 171.038127,41.1092513 170.005725,40.6679221 C168.967174,40.2243972 167.849579,40 166.684558,40 L164.537634,40 C163.371734,40 162.25414,40.2243972 161.216467,40.6679221 C160.183625,41.1092513 159.268471,41.7240382 158.496474,42.4960349 C157.723599,43.2693491 157.108373,44.1845033 156.668361,45.216028 C156.224397,46.2537005 156,47.3712953 156,48.5376339 L156,60.6318103 C156,61.7985881 156.224397,62.9161829 156.667922,63.9529771 C157.108812,64.9858192 157.723599,65.9009734 158.496474,66.6729702 C159.268032,67.4449669 160.183186,68.060193 161.216467,68.501083 C162.25414,68.945047 163.371734,69.1694442 164.537634,69.1694442 L166.684558,69.1694442 C167.849579,69.1694442 168.967174,68.945047 170.006164,68.501083 C171.038567,68.060193 171.953721,67.4449669 172.725718,66.6729702 C173.497275,65.9014126 174.112501,64.9866974 174.55427,63.9534163 L174.554709,63.9529771 C174.997355,62.9144263 175.222192,61.7972707 175.222192,60.6318103 L175.222192,48.5376339 C175.222192,47.3726127 174.997355,46.255457 174.55427,45.216028 C174.112501,44.1836251 173.497275,43.2684708 172.725278,42.4955958 L172.725278,42.4955958 Z" id="Fill-5" fill="#79A8E2"></path>
                <g id="Group-9" transform="translate(180.000000, 40.000000)">
                    <mask id="mask-2" fill="white">
                        <use xlink:href="#path-1"></use>
                    </mask>
                    <g id="Clip-8"></g>
                    <path d="M15.51529,10.8800161 C15.51529,11.4328852 15.4103371,11.9567715 15.2021878,12.4385009 C14.9935993,12.9237435 14.7024538,13.3510204 14.3384121,13.7075968 C13.9712965,14.0676863 13.5369935,14.3570753 13.0464813,14.5678594 C12.5656301,14.7755696 12.0417438,14.8805225 11.4884356,14.8805225 L8.81806462,14.8805225 C8.26431724,14.8805225 7.74043095,14.7755696 7.25914061,14.5674203 C6.77214153,14.3579536 6.34354722,14.0703211 5.98609253,13.7124273 C5.62732044,13.3540943 5.33968798,12.9255 5.13022129,12.4380618 C4.92251114,11.9576497 4.81755822,11.4337634 4.81755822,10.8800161 L4.81755822,8.49771671 C4.81755822,7.94440847 4.92251114,7.42052218 5.13066043,6.93879271 C5.34012712,6.4513545 5.62775957,6.02276018 5.98565339,5.66574462 C6.34310808,5.30828994 6.77214153,5.01977921 7.25914061,4.80987339 C7.74130922,4.60216323 8.26563464,4.49721032 8.81806462,4.49721032 L11.4884356,4.49721032 C12.0404264,4.49721032 12.5647518,4.60216323 13.0464813,4.80943425 C13.5365543,5.02109661 13.9712965,5.3104856 14.3388513,5.67057509 C14.7020147,6.02583411 14.9927211,6.45311103 15.2021878,6.93923184 C15.4103371,7.42140045 15.51529,7.94528674 15.51529,8.49771671 L15.51529,10.8800161 Z M5.73402989,31.2457115 C5.73402989,30.7007468 5.83546973,30.2097955 6.03615375,29.787349 C6.23903344,29.3609504 6.51524842,29.0004218 6.85777257,28.714985 C7.21215332,28.4198872 7.63899111,28.1867073 8.12642932,28.0215931 C8.6226502,27.853405 9.1636627,27.7686522 9.73453628,27.7686522 L11.3834827,27.7686522 C11.9539171,27.7686522 12.4949296,27.8538441 12.9915896,28.0215931 C13.4785887,28.1867073 13.9058656,28.4198872 14.2606855,28.714985 C14.6027705,29.0004218 14.8794246,29.3609504 15.0818652,29.787349 C15.2825492,30.2106737 15.3844282,30.7011859 15.3844282,31.2457115 L15.3844282,31.6642057 C15.3844282,32.2065356 15.2834275,32.6917781 15.0836217,33.1054419 C14.8803029,33.526571 14.601014,33.8901735 14.2545376,34.1865887 C13.900596,34.4887125 13.4755148,34.7249664 12.9920288,34.8887632 C12.4949296,35.0565122 11.9539171,35.1417041 11.3834827,35.1417041 L9.73453628,35.1417041 C9.1636627,35.1417041 8.6226502,35.0569513 8.12686845,34.8887632 C7.64206504,34.7249664 7.21742293,34.4887125 6.86435957,34.1870278 C6.51700496,33.8906127 6.23771604,33.526571 6.03483635,33.1063202 C5.8350306,32.6926564 5.73402989,32.2069747 5.73402989,31.6642057 L5.73402989,31.2457115 Z M19.3673692,0.666648601 L18.2941269,0.666648601 C18.0701688,0.666648601 17.8615804,0.780384183 17.7403795,0.968772464 L16.475675,2.93257758 C15.7967746,2.19263759 14.9962341,1.57653326 14.0859104,1.09612119 C12.8870758,0.463768913 11.5635274,0.143201442 10.1534697,0.143201442 L8.81806462,0.143201442 C7.65216511,0.143201442 6.5345703,0.368037805 5.49733692,0.81112353 C4.46405574,1.25245272 3.54890148,1.86767879 2.77690474,2.63923638 C2.00402974,3.41255052 1.38880368,4.32770478 0.948791889,5.35922942 C0.504827898,6.39690194 0.280430668,7.51449675 0.280430668,8.68083539 L0.280430668,10.6964583 C0.280430668,12.0116632 0.548302116,13.2429936 1.07657974,14.3557579 C1.48980439,15.2256814 2.02510815,16.0064608 2.6741475,16.6840438 C2.16738741,17.1675299 1.74713663,17.7427948 1.42173869,18.401495 C0.977335568,19.2999622 0.751620938,20.2836213 0.751620938,21.3248069 C0.751620938,22.4832411 1.03222726,23.55824 1.58509636,24.5203816 C2.00051668,25.2401214 2.52835517,25.8553475 3.16070744,26.3546423 C2.68556497,26.9228811 2.29210134,27.5605029 1.985147,28.257847 C1.56621362,29.2094493 1.353673,30.267322 1.353673,31.4024821 L1.353673,31.507435 C1.353673,32.678165 1.58026589,33.773364 2.02686469,34.763171 C2.47346348,35.749904 3.09483741,36.6070926 3.87473855,37.3105845 C4.64980922,38.009246 5.56628088,38.558602 6.59868379,38.9441612 C7.62889104,39.3275248 8.73682491,39.522061 9.89130695,39.522061 L11.2262729,39.522061 C12.3807549,39.522061 13.4891279,39.3275248 14.5193351,38.9437221 C15.5517381,38.558602 16.4682097,38.009246 17.2437195,37.3105845 C18.0236207,36.6062144 18.6449946,35.7490257 19.0911542,34.763171 L19.0911542,34.7627318 C19.537753,33.7729249 19.7647851,32.6777259 19.7647851,31.507435 L19.7647851,31.4024821 C19.7647851,30.2317522 19.537753,29.1365531 19.0911542,28.1476245 C18.6454337,27.1613306 18.0240598,26.3045811 17.2437195,25.5997718 C16.469088,24.9015495 15.5526163,24.3521934 14.518896,23.966195 C13.4891279,23.5828315 12.3807549,23.3882953 11.2262729,23.3882953 L6.82878976,23.3882953 C6.55125737,23.3882953 6.28514246,23.3355993 6.03747115,23.2306464 C5.78233457,23.1234978 5.56452435,22.9772664 5.3699882,22.7822911 C5.17676945,22.5895115 5.03053798,22.3712621 4.92251114,22.1156864 C4.81667996,21.864502 4.76530134,21.6058524 4.76530134,21.3248069 C4.76530134,21.0415658 4.81755822,20.7763291 4.92514594,20.5146056 C5.03097712,20.2568342 5.17413464,20.0429762 5.36252293,19.8611749 C5.55881561,19.6714692 5.79023898,19.5164551 6.05064516,19.3996455 C6.29963386,19.2885448 6.55389217,19.2345313 6.82878976,19.2345313 L11.4884356,19.2345313 C12.6543351,19.2345313 13.7719299,19.0101341 14.8096024,18.5670484 C15.8428836,18.1252801 16.7580378,17.510054 17.5295954,16.7380573 C18.301153,15.9669388 18.9163791,15.0517845 19.3585866,14.0180642 C19.8016723,12.9795134 20.0260695,11.8623578 20.0260695,10.6964583 L20.0260695,1.32534888 C20.0260695,0.961746328 19.7314109,0.666648601 19.3673692,0.666648601 L19.3673692,0.666648601 Z" id="Fill-7" fill="#79A8E2" mask="url(#mask-2)"></path>
                </g>
                <path d="M220.725718,42.4960349 C219.953282,41.7244773 219.038127,41.1096904 218.006164,40.6683612 C216.967174,40.2248364 215.849579,40 214.684558,40 L213.873478,40 C212.462542,40 211.138994,40.3210066 209.93972,40.9533589 C209.030275,41.4333318 208.229734,42.048997 207.550834,42.7898153 L206.28569,40.825571 C206.164928,40.6376219 205.955901,40.5238863 205.731943,40.5238863 L204.6587,40.5238863 C204.295098,40.5238863 204,40.818984 204,41.1825866 L204,67.9877359 C204,68.3513385 204.295098,68.6464362 204.6587,68.6464362 L207.878427,68.6464362 C208.24203,68.6464362 208.537128,68.3513385 208.537128,67.9877359 L208.537128,48.3549544 C208.537128,47.8016462 208.64208,47.2777599 208.85023,46.7960304 C209.060136,46.3085922 209.347768,45.8799979 209.705223,45.5229823 C210.063117,45.1650885 210.491711,44.8770169 210.979149,44.6666719 C211.460879,44.4594009 211.985643,44.3540089 212.537634,44.3540089 L214.684558,44.3540089 C215.236549,44.3540089 215.760874,44.4594009 216.242603,44.6662328 C216.730481,44.877456 217.159514,45.1655276 217.516969,45.5229823 C217.873985,45.8786805 218.161617,46.3077139 218.37284,46.7960304 C218.580111,47.2786381 218.685503,47.8029636 218.685503,48.3549544 L218.685503,67.9877359 C218.685503,68.3513385 218.980162,68.6464362 219.344204,68.6464362 L222.563931,68.6464362 C222.927533,68.6464362 223.222631,68.3513385 223.222631,67.9877359 L223.222631,48.5380731 C223.222631,47.3730518 222.997794,46.2558962 222.55427,45.216028 C222.112501,44.1840642 221.497714,43.2689099 220.725718,42.4960349" id="Fill-10" fill="#79A8E2"></path>
                <path d="M233.401874,30 L229.6587,30 C229.294659,30 229,30.2950977 229,30.6587003 L229,34.9516696 C229,35.3152722 229.294659,35.6103699 229.6587,35.6103699 L233.401874,35.6103699 C233.765477,35.6103699 234.060575,35.3152722 234.060575,34.9516696 L234.060575,30.6587003 C234.060575,30.2950977 233.765477,30 233.401874,30" id="Fill-12" fill="#79A8E2"></path>
                <path d="M233.878427,40 L230.6587,40 C230.295098,40 230,40.2950977 230,40.6587003 L230,67.4638496 C230,67.8274522 230.295098,68.1225499 230.6587,68.1225499 L233.878427,68.1225499 C234.24203,68.1225499 234.537128,67.8274522 234.537128,67.4638496 L234.537128,40.6587003 C234.537128,40.2950977 234.24203,40 233.878427,40" id="Fill-14" fill="#79A8E2"></path>
                <path d="M253.500974,40.9625202 L247.353544,40.9625202 L247.353544,34.6583194 C247.353544,34.4651006 247.268791,34.2815428 247.121682,34.1563897 C246.974133,34.0312367 246.781792,33.9785407 246.589013,34.0079626 L243.369286,34.5314098 C243.050475,34.5836667 242.816416,34.8590034 242.816416,35.1817665 L242.816416,40.9625202 L238.6587,40.9625202 C238.295098,40.9625202 238,41.2576179 238,41.6212205 L238,44.6841768 C238,45.0477794 238.295098,45.3428771 238.6587,45.3428771 L242.816416,45.3428771 L242.816416,61.3585158 C242.816416,62.4242929 243.024566,63.4382522 243.434716,64.37185 C243.840476,65.2966652 244.396419,66.1209189 245.087176,66.8208977 C245.781885,67.5252679 246.610969,68.084724 247.550276,68.4830181 C248.492656,68.8826296 249.507933,69.0850701 250.56888,69.0850701 L253.500974,69.0850701 C253.864577,69.0850701 254.159675,68.7899724 254.159675,68.4263698 L254.159675,65.3634135 C254.159675,64.999811 253.864577,64.7047132 253.500974,64.7047132 L250.56888,64.7047132 C250.120085,64.7047132 249.695882,64.6212779 249.308566,64.4561637 C248.917738,64.2901712 248.573896,64.0605044 248.286264,63.7724328 C247.997753,63.4839221 247.766769,63.1427153 247.599898,62.7584735 C247.436101,62.3816969 247.353544,61.9632027 247.353544,61.5157256 L247.353544,45.3428771 L253.500974,45.3428771 C253.864577,45.3428771 254.159675,45.0477794 254.159675,44.6841768 L254.159675,41.6212205 C254.159675,41.2576179 253.864577,40.9625202 253.500974,40.9625202" id="Fill-16" fill="#79A8E2"></path>
                <path d="M264.401874,30 L260.6587,30 C260.294659,30 260,30.2950977 260,30.6587003 L260,34.9516696 C260,35.3152722 260.294659,35.6103699 260.6587,35.6103699 L264.401874,35.6103699 C264.765477,35.6103699 265.060575,35.3152722 265.060575,34.9516696 L265.060575,30.6587003 C265.060575,30.2950977 264.765477,30 264.401874,30" id="Fill-18" fill="#79A8E2"></path>
                <path d="M263.878427,40 L260.6587,40 C260.295098,40 260,40.2950977 260,40.6587003 L260,67.4638496 C260,67.8274522 260.295098,68.1225499 260.6587,68.1225499 L263.878427,68.1225499 C264.24203,68.1225499 264.537128,67.8274522 264.537128,67.4638496 L264.537128,40.6587003 C264.537128,40.2950977 264.24203,40 263.878427,40" id="Fill-20" fill="#79A8E2"></path>
                <path d="M289.259684,40 L286.039957,40 C285.758472,40 285.508166,40.1787273 285.416826,40.4452814 L278.971224,59.2489788 L272.501031,40.4444031 C272.409691,40.1782882 272.159824,40 271.87834,40 L268.658613,40 C268.444755,40 268.244071,40.1036355 268.120235,40.2788498 C267.997278,40.4531858 267.966538,40.6771439 268.037678,40.8787062 L277.540088,67.6838555 C277.633185,67.9468965 277.882173,68.1225499 278.161023,68.1225499 L279.757273,68.1225499 C280.036123,68.1225499 280.285112,67.9468965 280.378208,67.6838555 L289.880619,40.8787062 C289.951758,40.6771439 289.921019,40.4531858 289.798061,40.2788498 C289.674226,40.1036355 289.473542,40 289.259684,40" id="Fill-22" fill="#79A8E2"></path>
                <path d="M296.537128,48.3545153 C296.537128,47.801207 296.64208,47.2773207 296.85023,46.7955913 C297.059696,46.3081531 297.347768,45.8795587 297.705223,45.5225432 C298.063117,45.1646494 298.491711,44.8765778 298.979149,44.6666719 C299.460879,44.4589618 299.985643,44.3540089 300.537634,44.3540089 L302.684558,44.3540089 C303.236549,44.3540089 303.760874,44.4589618 304.242603,44.6662328 C304.730481,44.8770169 305.159514,45.1650885 305.516969,45.5225432 C305.873985,45.8782413 306.161617,46.3072748 306.372401,46.7955913 C306.580111,47.278199 306.685064,47.8025244 306.685064,48.3545153 L306.685064,51.675243 L296.537128,51.675243 L296.537128,48.3545153 Z M310.563491,55.5053656 C310.927533,55.5053656 311.222192,55.2102678 311.222192,54.8466653 L311.222192,48.5376339 C311.222192,47.3726127 310.997794,46.255457 310.55427,45.216028 C310.112501,44.1836251 309.497714,43.2684708 308.725718,42.4955958 C307.953282,41.7240382 307.038127,41.1092513 306.005725,40.6679221 C304.967174,40.2243972 303.849579,40 302.684558,40 L300.537634,40 C299.371734,40 298.25414,40.2243972 297.216906,40.6679221 C296.183625,41.1092513 295.268471,41.7240382 294.496913,42.4960349 C293.724038,43.2693491 293.108373,44.1845033 292.668361,45.216028 C292.224836,46.2537005 292,47.3712953 292,48.5376339 L292,60.6318103 C292,61.7985881 292.224836,62.9161829 292.667922,63.9529771 C293.108812,64.9858192 293.724038,65.9009734 294.496913,66.6729702 C295.268032,67.4449669 296.183186,68.060193 297.216467,68.501083 C298.25414,68.945047 299.371734,69.1694442 300.537634,69.1694442 L302.684558,69.1694442 C303.849579,69.1694442 304.967174,68.945047 306.006164,68.501083 C307.038567,68.060193 307.953721,67.4449669 308.726157,66.6729702 C309.497714,65.9014126 310.112501,64.9866974 310.55427,63.9534163 L310.554709,63.9529771 C310.997794,62.9144263 311.222192,61.7972707 311.222192,60.6318103 L311.222192,59.558568 C311.222192,59.2353657 310.988134,58.960029 310.669762,58.9082112 L307.450035,58.3847641 C307.257255,58.354903 307.064915,58.4080381 306.917366,58.5331912 C306.770256,58.6583442 306.685064,58.8419021 306.685064,59.0346817 L306.685064,60.8144898 C306.685064,61.3673589 306.580111,61.8916844 306.37284,62.3729747 C306.162056,62.8621695 305.873985,63.2907638 305.516969,63.6469011 C305.159075,64.005234 304.730042,64.2933056 304.243043,64.5027723 C303.761752,64.7104825 303.237427,64.8154354 302.684558,64.8154354 L300.537634,64.8154354 C299.984765,64.8154354 299.46,64.7104825 298.979588,64.5027723 C298.49215,64.2933056 298.063995,64.0056732 297.705223,63.6473402 C297.347768,63.2894464 297.059696,62.8608521 296.849791,62.3729747 C296.64208,61.8925626 296.537128,61.3682372 296.537128,60.8144898 L296.537128,55.5053656 L310.563491,55.5053656 Z" id="Fill-24" fill="#79A8E2"></path>
                <g id="Group-50" transform="translate(68.065696, 0.322763)">
                    <mask id="mask-4" fill="white">
                        <use xlink:href="#path-3"></use>
                    </mask>
                    <g id="Clip-49"></g>
                </g>
                <g id="Group-53" transform="translate(0.000000, 41.162181)">
                    <mask id="mask-6" fill="white">
                        <use xlink:href="#path-5"></use>
                    </mask>
                    <g id="Clip-52"></g>
                </g>
            </g>
        </g>
    </g>
</svg>